<svg id="Calque_1" data-name="Calque 1" xmlns="http://www.w3.org/2000/svg" viewBox="0 0 150 48.47"><defs><style>.cls-1{fill:#ef7905;}.cls-2{fill:#344b71;}</style></defs><title>Sans titre - 1</title><path class="cls-1" d="M3.73,24V2.67H4.19L18.41,19V2.67h2.1V24H20L5.93,7.86V24H3.73Z" transform="translate(-3.16 -0.83)"/><path class="cls-2" d="M41.95,18.79l1.71,0.9a9.36,9.36,0,0,1-1.95,2.67,7.73,7.73,0,0,1-2.48,1.55,8.67,8.67,0,0,1-3.12.53,7.55,7.55,0,0,1-6-2.53,8.54,8.54,0,0,1-2.18-5.73,8.44,8.44,0,0,1,1.85-5.36,7.55,7.55,0,0,1,6.26-3,7.79,7.79,0,0,1,6.45,3.06,8.56,8.56,0,0,1,1.74,5.4H30a6.43,6.43,0,0,0,1.76,4.51,5.61,5.61,0,0,0,4.2,1.76,6.75,6.75,0,0,0,2.35-.42A6.16,6.16,0,0,0,40.21,21,9.5,9.5,0,0,0,41.95,18.79Zm0-4.25a6.76,6.76,0,0,0-1.18-2.6,5.61,5.61,0,0,0-2.06-1.57A6.3,6.3,0,0,0,36,9.77a5.79,5.79,0,0,0-4,1.5,6.76,6.76,0,0,0-1.85,3.27H41.95ZM37.05,0.83h3.12L35.89,5.3h-2Z" transform="translate(-3.16 -0.83)"/><path class="cls-2" d="M58.72,7.83a7.82,7.82,0,0,1,6,2.64A8.22,8.22,0,0,1,67,16.17,8.22,8.22,0,0,1,64.64,22a8.35,8.35,0,0,1-11.87,0,8.22,8.22,0,0,1-2.3-5.79,8.2,8.2,0,0,1,2.18-5.69A7.82,7.82,0,0,1,58.72,7.83Zm0,2a5.87,5.87,0,0,0-4.36,1.87,6.26,6.26,0,0,0-1.82,4.53,6.42,6.42,0,0,0,.83,3.19,5.89,5.89,0,0,0,2.24,2.29,6.38,6.38,0,0,0,6.21,0,5.89,5.89,0,0,0,2.24-2.29,6.43,6.43,0,0,0,.83-3.19,6.24,6.24,0,0,0-1.83-4.53A5.87,5.87,0,0,0,58.71,9.81Z" transform="translate(-3.16 -0.83)"/><path class="cls-2" d="M73.68,2.13h2V24h-2V2.13Z" transform="translate(-3.16 -0.83)"/><path class="cls-2" d="M83.91,1.73a1.61,1.61,0,0,1,1.19.49,1.63,1.63,0,0,1,.49,1.19,1.61,1.61,0,0,1-.49,1.18,1.61,1.61,0,0,1-1.19.49,1.59,1.59,0,0,1-1.17-.49,1.61,1.61,0,0,1-.49-1.18,1.63,1.63,0,0,1,.49-1.19A1.6,1.6,0,0,1,83.91,1.73Zm-1,6.5h2V24h-2V8.23Z" transform="translate(-3.16 -0.83)"/><path class="cls-2" d="M108.17,8.23V24h-2V21.31a8.71,8.71,0,0,1-2.87,2.34A8,8,0,0,1,94.09,22a8.16,8.16,0,0,1-2.37-5.92,8,8,0,0,1,2.39-5.84,7.81,7.81,0,0,1,5.76-2.42,7.45,7.45,0,0,1,3.52.83,8,8,0,0,1,2.77,2.48V8.23h2ZM100,9.79A6.13,6.13,0,0,0,94.63,13a6.4,6.4,0,0,0,0,6.38,6.23,6.23,0,0,0,2.3,2.37,6,6,0,0,0,3.1.85,6.34,6.34,0,0,0,3.16-.84,5.88,5.88,0,0,0,2.3-2.28,6.5,6.5,0,0,0,.8-3.23,6.29,6.29,0,0,0-1.8-4.58A6,6,0,0,0,100,9.79Z" transform="translate(-3.16 -0.83)"/><path class="cls-2" d="M116,8.23h2v2.83a8.49,8.49,0,0,1,2.7-2.43A6.63,6.63,0,0,1,124,7.83a5.6,5.6,0,0,1,3.14.9,5.37,5.37,0,0,1,2,2.42,12.82,12.82,0,0,1,.65,4.75V24h-2V16.49a18.61,18.61,0,0,0-.23-3.64,4,4,0,0,0-1.36-2.36,4.09,4.09,0,0,0-2.61-.79,5,5,0,0,0-3.3,1.22,5.71,5.71,0,0,0-1.92,3,21,21,0,0,0-.29,4.3V24h-2V8.23Z" transform="translate(-3.16 -0.83)"/><path class="cls-2" d="M150.71,18.79l1.71,0.9a9.35,9.35,0,0,1-1.95,2.67A7.73,7.73,0,0,1,148,23.91a8.67,8.67,0,0,1-3.12.53,7.55,7.55,0,0,1-6-2.53,8.55,8.55,0,0,1-2.18-5.73,8.44,8.44,0,0,1,1.85-5.36,7.55,7.55,0,0,1,6.26-3,7.79,7.79,0,0,1,6.45,3.06,8.56,8.56,0,0,1,1.74,5.4H138.74a6.43,6.43,0,0,0,1.76,4.51,5.61,5.61,0,0,0,4.2,1.76,6.75,6.75,0,0,0,2.35-.42A6.16,6.16,0,0,0,149,21,9.49,9.49,0,0,0,150.71,18.79Zm0-4.25a6.74,6.74,0,0,0-1.19-2.6,5.6,5.6,0,0,0-2.06-1.57,6.3,6.3,0,0,0-2.69-.6,5.79,5.79,0,0,0-4,1.5,6.76,6.76,0,0,0-1.85,3.27h11.77Z" transform="translate(-3.16 -0.83)"/><rect class="cls-2" x="0.36" y="30.65" width="149.64" height="0.41"/><path class="cls-2" d="M7.87,41.18a1.72,1.72,0,0,0-1.62-1,1.49,1.49,0,0,0-1.56,1.46c0,0.81.83,1.18,1.47,1.47l0.62,0.27C8,43.89,9,44.5,9,46a2.9,2.9,0,0,1-3,2.9,2.9,2.9,0,0,1-2.93-2.43l1-.29a1.93,1.93,0,0,0,1.88,1.74A1.89,1.89,0,0,0,8,46.1c0-1.1-.86-1.47-1.73-1.87L5.69,44c-1.1-.5-2-1.06-2-2.4a2.46,2.46,0,0,1,2.63-2.39A2.69,2.69,0,0,1,8.7,40.64Z" transform="translate(-3.16 -0.83)"/><path class="cls-2" d="M13,46.07l-1.13,2.67H10.69L15,38.9l4.22,9.84H18.09L17,46.07H13Zm2-4.73L13.4,45.1h3.17Z" transform="translate(-3.16 -0.83)"/><path class="cls-2" d="M21.33,38.95l7.32,7.67V39.35h1v9.81L22.37,41.5v7.24h-1V38.95Z" transform="translate(-3.16 -0.83)"/><path class="cls-2" d="M35.13,48.74h-1V40.32H31.82v-1h5.6v1H35.13v8.42Z" transform="translate(-3.16 -0.83)"/><path class="cls-2" d="M39.49,39.35h4.87v1H40.54v2.79h3.71v1H40.54v3.69h3.82v1H39.49V39.35Zm4.15-2.63-1.91,1.92-0.62-.35,1.48-2Z" transform="translate(-3.16 -0.83)"/><path class="cls-1" d="M57.25,47.42a4.72,4.72,0,0,1-3,1.48,2.66,2.66,0,0,1-2.74-2.57c0-1.57,1.13-2.32,2.3-3.09l0.11-.07a3.57,3.57,0,0,1-.93-2,2,2,0,0,1,2.05-2A1.9,1.9,0,0,1,57,41c0,1.12-.85,1.73-1.66,2.34l2,2.53,1.06-1.23,0.76,0.62L58,46.68l1.59,2.06H58.25Zm-3.16-3.18a2.7,2.7,0,0,0-1.56,2A1.73,1.73,0,0,0,54.18,48a4.1,4.1,0,0,0,2.44-1.32l-2.09-2.69Zm0.78-1.69A2.07,2.07,0,0,0,56,41a1,1,0,0,0-1-1,1,1,0,0,0-1,1,2.15,2.15,0,0,0,.57,1.2l0.22,0.31Z" transform="translate(-3.16 -0.83)"/><path class="cls-2" d="M67.49,48.74h-1V39.35H68a4,4,0,0,1,2.33.5A2.59,2.59,0,0,1,71.38,42a2.64,2.64,0,0,1-.9,2,3.38,3.38,0,0,1-2.23.62H67.49v4.11Zm0-5.08h0.7c1.16,0,2.14-.35,2.14-1.69,0-1.53-1.23-1.64-2.45-1.64H67.49v3.34Z" transform="translate(-3.16 -0.83)"/><path class="cls-2" d="M74.75,48.74h-1V39.35h1.36c1.78,0,3.44.47,3.44,2.59a2.45,2.45,0,0,1-2.35,2.59l3,4.21H77.85L75,44.62H74.75v4.12Zm0-5h0.32c1.18,0,2.38-.22,2.38-1.68s-1.13-1.69-2.39-1.69H74.75v3.37Z" transform="translate(-3.16 -0.83)"/><path class="cls-2" d="M81.45,39.35h4.87v1H82.49v2.79H86.2v1H82.49v3.69h3.82v1H81.45V39.35Zm4.15-2.63-1.91,1.92-0.62-.35,1.48-2Z" transform="translate(-3.16 -0.83)"/><path class="cls-2" d="M92,46.51l2.68-7.16h1.13L92,49.3l-3.81-10h1.13Z" transform="translate(-3.16 -0.83)"/><path class="cls-2" d="M107.17,44.05a4.89,4.89,0,1,1-4.89-4.87A4.87,4.87,0,0,1,107.17,44.05Zm-8.74,0a3.85,3.85,0,1,0,3.85-3.89A3.88,3.88,0,0,0,98.43,44Z" transform="translate(-3.16 -0.83)"/><path class="cls-2" d="M108.74,39.35h1.21l2.39,4.18,2.39-4.18h1.21l-3.08,5.35v4h-1v-4Z" transform="translate(-3.16 -0.83)"/><path class="cls-2" d="M118.38,46.07l-1.13,2.67H116.1l4.33-9.84,4.22,9.84h-1.16l-1.11-2.67h-4Zm2-4.73L118.8,45.1H122Z" transform="translate(-3.16 -0.83)"/><path class="cls-2" d="M126.73,38.95l7.32,7.67V39.35h1v9.81l-7.32-7.66v7.24h-1V38.95Z" transform="translate(-3.16 -0.83)"/><path class="cls-2" d="M145.21,41.4a4,4,0,0,0-2.86-1.25,3.89,3.89,0,0,0,0,7.77,4.11,4.11,0,0,0,2.84-1.25V48a4.84,4.84,0,0,1-2.8.92,4.86,4.86,0,1,1,0-9.71,4.53,4.53,0,0,1,2.8.92V41.4Z" transform="translate(-3.16 -0.83)"/><path class="cls-2" d="M148,39.35h4.87v1H149v2.79h3.71v1H149v3.69h3.82v1H148V39.35Z" transform="translate(-3.16 -0.83)"/></svg>