<svg id="Calque_1" xmlns="http://www.w3.org/2000/svg" viewBox="30 12 100 18">  <style>    .st0{fill:#3399CC;} .st1{fill:#99CC33;}  </style>  <path id="XMLID_136_" class="st0" d="M51.9 24.8c-1.1.7-3 1.9-5 1.8-1.6-.1-2-1.2-2-2.3 2.9.8 6.7-.3 6.7-3.5 0-2.6-1.9-4.1-5.4-4.1-3.9 0-6.7 2.1-6.7 6.5 0 4.7 2.8 6.5 6.7 6.5 2.3 0 4.3-.4 5.6-1.2 0-.9.1-2.3.1-3.7zm-5.2-5.2c.6 0 1 .3 1 1.1 0 2.1-2 2.1-3 1.9.2-1.5.7-3 2-3z"/>  <path id="XMLID_82_" class="st1" d="M88.5 29.3c.4-.4.9-1 1.5-1.7 0-1.6-.1-3.8-.1-6.4 0-2.7-1.4-4.5-4.3-4.5-2.4 0-3.8 1.1-4.3 2.5 0-.6 0-1.3.1-2.1H76v2.8c0 4.5-.2 9.4-.2 9.4h5.4c-.1-1.5-.2-4.2-.2-6.1 0-1.6.3-3.2 1.7-3.2s1.8 1.3 1.8 3.2-.1 4.6-.1 6.1h4.1z"/>  <path id="XMLID_81_" class="st1" d="M61.7 29.3c.8-.8 1.9-2.2 3.1-3.9l-6.7.2V13.7h-5.3s.1 4.4.1 7.8c0 2.4-.2 7.8-.2 7.8h9z"/>  <path id="XMLID_80_" class="st0" d="M38.9 29.3c.8-.8 1.9-2.2 3.1-3.9l-6.7.2V13.7h-5.2s.1 4.4.1 7.8c0 2.4-.2 7.8-.2 7.8h8.9z"/>  <path id="XMLID_79_" class="st1" d="M72.2 17.1c-.5.9-1.3 2-2.2 3.2-1-1.2-1.8-2.3-2.3-3.2h-5.5c.5.9 2.4 3.5 4.5 6l.6.8c-1.7 2.3-3.4 4.4-4.3 5.3h5.5s.9-1.3 2.8-3.6l2-2.5c2-2.6 3.9-5.2 4.5-6h-5.6z"/>  <path id="XMLID_77_" class="st0" d="M107.9 29.6c-1 0-1.8-.8-1.8-1.8s.8-1.8 1.8-1.8 1.8.8 1.8 1.8-.8 1.8-1.8 1.8z"/>  <path id="XMLID_75_" class="st0" d="M130 17.7l-2.7 4.6c-.6-.3-1.6-.7-2.5-.7-1.1 0-1.9.4-1.9 2.6 0 1.6.1 3.7.2 5.1h-5.4s.2-4.9.2-9.4v-2.8h4.9v3.3c.3-1.1 1.3-3.7 3.7-3.7.5 0 2.7.3 3.5 1z"/>  <path id="XMLID_74_" class="st0" d="M115.2 17.4c0-1.3.2-2.1 1.4-2.1.6 0 1 .1 1.5.3.5-.6 1.1-1.3 1.7-2.2v-.1c-.7-.6-2.1-1.1-4-1.1-3 0-5.2 1.5-5.2 4.8 0 .4 0 .9.1 1.4l-1.4 1.6-.1 1.4h1.7v.6c0 2-.1 7.2-.1 7.2h4.7c0-2.2-.1-5.3-.2-7.8h3l.4-2.9h-3.5v-1.1z"/>  <path id="XMLID_73_" class="st1" d="M89.7 29.3h6c.4-.5 1.1-1.4 2-2.5 1 1.1 1.6 2 2 2.5h6c-1.1-1-3-3.5-5.1-6 2.1-2.5 4.2-5.1 5-6.2h-5.9c-.6.8-1.2 1.6-2 2.6-.7-1-1.4-1.8-2-2.6h-5.9c.8 1.1 2.8 3.7 5 6.2-2 2.6-4 5-5.1 6z"/></svg>