<svg xmlns="http://www.w3.org/2000/svg" xmlns:xlink="http://www.w3.org/1999/xlink" width="85" height="100" viewBox="0 0 85 100">
    <defs>
        <path id="prefix__a" d="M0.073 0.294L18.681 0.294 18.681 17.019 0.073 17.019z"/>
    </defs>
    <g fill="none" fill-rule="evenodd">
        <path fill="#EAF6FF" d="M67.177 79.793c0 4.46-3.616 8.077-8.076 8.077-4.46 0-8.077-3.616-8.077-8.077 0-4.46 3.616-8.076 8.077-8.076 4.46 0 8.076 3.616 8.076 8.076M45.558 48.649c0 3.204-2.597 5.801-5.802 5.801-3.204 0-5.801-2.597-5.801-5.801 0-3.205 2.597-5.802 5.801-5.802 3.205 0 5.802 2.597 5.802 5.802M48.713 63.84c0 3.835-3.109 6.944-6.944 6.944s-6.944-3.11-6.944-6.944c0-3.835 3.109-6.944 6.944-6.944s6.944 3.109 6.944 6.944"/>
        <path fill="#EAF6FF" d="M49.688 57.15c0 4.46-3.616 8.076-8.077 8.076-4.46 0-8.077-3.616-8.077-8.077 0-4.46 3.616-8.076 8.077-8.076 4.46 0 8.077 3.616 8.077 8.076"/>
        <path fill="#EAF6FF" d="M39.902 60.455c0 5.704-4.625 10.329-10.33 10.329-5.704 0-10.328-4.625-10.328-10.33 0-5.704 4.624-10.329 10.329-10.329 5.704 0 10.329 4.625 10.329 10.33"/>
        <path fill="#EAF6FF" d="M23.757 63.84c0 4.46-3.616 8.076-8.077 8.076-4.46 0-8.076-3.616-8.076-8.076 0-4.46 3.616-8.077 8.076-8.077 4.46 0 8.077 3.616 8.077 8.077"/>
        <path fill="#EAF6FF" d="M25.7 69.058c0 3.727-3.022 6.749-6.75 6.749-3.726 0-6.748-3.022-6.748-6.749s3.022-6.749 6.749-6.749 6.749 3.022 6.749 6.75"/>
        <path fill="#EAF6FF" d="M13.498 70.322c0 3.728-3.022 6.749-6.749 6.749C3.021 77.071 0 74.05 0 70.322c0-3.727 3.021-6.749 6.749-6.749 3.727 0 6.749 3.022 6.749 6.749"/>
        <path fill="#229DD3" d="M32.706 34.386l3.52-2.02c.598-.343.992-.954 1.058-1.64l.558-5.787-4.308.992-.828 8.455z"/>
        <path fill="#229DD3" d="M40.244 28.035c-2.249-1.12-4.106-.245-5.198.586-.501.382-1.251-.457-1.32-1.454-.895-12.983 8.043-9.735 8.043-9.735l-1.525 10.603z"/>
        <path fill="#37ACED" d="M32.24 34.01c.02.439.634.52.767.1l.892-2.805c.156-.488.525-.886 1.01-1.052.997-.342 2.227-.404 3.604.28l1.525-10.601s-8.938-3.248-8.043 9.734l.244 4.344z"/>
        <path fill="#FFCE43" d="M44.951 47.007L44.139 68.507 55.449 63.458 55.449 43.637z"/>
        <path fill="#FFE18C" d="M47.62 49.298s-1.1 3.953 2.445 6.814c0 0 4.284-2.608 2.654-8.326-1.63-5.72-5.098 1.512-5.098 1.512"/>
        <path fill="#37ACED" d="M41.769 43.894s1.413 5.94 8.77 6.218c7.357.278 7.23-4.736 7.23-4.736l-16-1.482z"/>
        <path fill="#F2F5F9" d="M63.044 24.574c-.648-7.503-5.835-16.11-8.869-20.961C53.228 2.097 51.93.79 50.458.354c-1.47.436-2.77 1.743-3.718 3.259-3.033 4.852-8.22 13.458-8.869 20.961-.56 6.48.437 12.972 2.314 18.097l.079.213c.474 1.22 1.584 2.215 3.232 3.167 1.955 1.128 4.421 1.779 6.962 1.954 2.54-.175 5.007-.826 6.962-1.954 1.648-.952 2.78-1.975 3.254-3.196l.057-.184c1.876-5.125 2.873-11.617 2.313-18.097"/>
        <path fill="#EAEFF4" d="M50.266 29.28c0 3.124-2.207 4.383-4.93 2.811-2.722-1.572-4.93-5.378-4.93-8.502 0-3.125 2.208-4.383 4.93-2.81 2.723 1.571 4.93 5.378 4.93 8.502"/>
        <path fill="#FFF" d="M48.803 30.136c0 3.123-2.207 4.382-4.93 2.81-2.722-1.572-4.929-5.378-4.929-8.502 0-3.124 2.207-4.383 4.93-2.81 2.722 1.571 4.929 5.378 4.929 8.502"/>
        <path fill="#229DD3" d="M46.666 28.74c0 1.86-1.314 2.609-2.935 1.673-1.62-.935-2.933-3.201-2.933-5.06 0-1.86 1.313-2.609 2.933-1.673 1.62.935 2.935 3.201 2.935 5.06"/>
        <g transform="translate(41.538 .053)">
            <mask id="prefix__b" fill="#fff">
                <use xlink:href="#prefix__a"/>
            </mask>
            <path fill="#37ACED" d="M18.68 14.578c-1.886-4.294-4.307-8.267-6.032-11.026C11.701 2.037 10.401.73 8.931.293 5.83.68 1.963 8.335.073 12.65c1.981 4.153 13.236 6.376 18.608 1.93" mask="url(#prefix__b)"/>
        </g>
        <path fill="#D9E9FF" d="M29.996 65.995c-1.396 0-2.726-.278-3.94-.78-.46 3.28-3.276 5.804-6.682 5.804-2.838 0-6.26-1.931-7.257-4.413-.313.777 0 1.97 0 2.86 0 3.727 3.53 6.58 7.257 6.58 3.406 0 6.222-2.523 6.682-5.803 1.214.502 2.544.78 3.94.78 5.704 0 10.329-4.624 10.329-10.328 0-.868-.108-1.71-.31-2.515-1.123 4.49-5.182 7.815-10.02 7.815"/>
        <path fill="#229DD3" d="M57.956 45.228l-2.142-.198c-.355 1.479-.772 2.968-1.259 4.465 3.478-1.205 3.4-4.267 3.4-4.267"/>
        <path fill="#EAEFF4" d="M55.16 47.145c.812-.282 1.58-.622 2.282-1.027 1.648-.952 2.781-1.975 3.255-3.196l.056-.184c1.876-5.126 2.873-11.618 2.314-18.097-.322-3.72-1.76-7.712-3.497-11.382-1.766-3.733-5.375-3.743-3.989 2.41 2.024 8.986 2.76 19.941-.422 31.476"/>
        <path fill="#229DD3" d="M55.82 16.698c1.661-.377 3.196-1.043 4.423-2.059-1.804-4.154-5.627-13.086-9.75-14.285-.012.004-.023.009-.035.012 1.85 4.084 3.972 9.703 5.362 16.332M60.73 27.29l-2.774 1.505 2.53 6.97-.037 1.298c.233.143.457.299.676.46l2.781 7.66 2.782-1.53c.186-.05.34-.188.421-.422 3.103-9.07-6.38-15.942-6.38-15.942"/>
        <path fill="#229DD3" d="M63.783 30.19l-4.958 3.031c4.156 3.402 6.344 5.89 4.073 15.387l3.826-2.218.15-.088c.226-.212.218-.368.298-.602 3.103-9.07-3.389-15.51-3.389-15.51"/>
        <path fill="#FFF" d="M48.384 2.622c-1.082 1.452-4.275 5.91-5.334 9.291-.125.399.057.83.427 1.024.46.242 1.026.029 1.213-.456.547-1.42 1.905-4.46 4.895-9.016.244-.372.104-.876-.298-1.067-.316-.15-.694-.057-.903.224"/>
        <path fill="#37ACED" d="M57.956 28.795l-.28 9.773c1.2.737 2.223 1.747 3.065 2.795.942 1.172 1.487 2.612 1.556 4.114l.126 2.755c.02.44.635.52.768.101l1.144-3.597c3.103-9.07-6.38-15.941-6.38-15.941"/>
        <path fill="#EAF6FF" d="M84.02 89.195c-1.346 6.635-7.818 10.922-14.453 9.575-6.635-1.347-10.922-7.819-9.575-14.454 1.348-6.636 7.819-10.922 14.454-9.575 6.636 1.347 10.922 7.818 9.575 14.454"/>
        <path fill="#EAF6FF" d="M68.005 70.002c0 5.704-4.625 10.329-10.33 10.329-5.704 0-10.329-4.625-10.329-10.33 0-5.704 4.625-10.329 10.33-10.329 5.704 0 10.329 4.625 10.329 10.33"/>
        <path fill="#EAF6FF" d="M62.708 89.185c-1.135 5.59-6.587 9.203-12.178 8.067-5.59-1.135-9.202-6.587-8.067-12.177 1.135-5.59 6.587-9.203 12.178-8.068 5.59 1.136 9.202 6.588 8.067 12.178"/>
        <path fill="#EAF6FF" d="M44.465 88.635c0 3.727-3.022 6.749-6.749 6.749s-6.749-3.022-6.749-6.75c0-3.727 3.022-6.748 6.75-6.748 3.726 0 6.748 3.021 6.748 6.749"/>
        <path fill="#EAF6FF" d="M34.755 90.225c0 3.728-3.021 6.75-6.749 6.75-3.727 0-6.748-3.022-6.748-6.75 0-3.727 3.021-6.748 6.748-6.748 3.728 0 6.75 3.02 6.75 6.748M64.892 57.705c0 3.204-2.597 5.802-5.802 5.802-3.204 0-5.801-2.598-5.801-5.802 0-3.205 2.597-5.802 5.801-5.802 3.205 0 5.802 2.597 5.802 5.802M74.197 71.307c0 3.205-2.597 5.802-5.802 5.802-3.204 0-5.801-2.597-5.801-5.802 0-3.204 2.597-5.801 5.801-5.801 3.205 0 5.802 2.597 5.802 5.801M52.226 76.09c0 5.705-4.625 10.33-10.33 10.33-5.704 0-10.329-4.625-10.329-10.33 0-5.704 4.625-10.329 10.33-10.329 5.704 0 10.329 4.625 10.329 10.33"/>
        <path fill="#D9E9FF" d="M83.322 81.731c-1.043 6.235-6.715 10.725-13.124 10.18-3.72-.315-6.909-2.263-8.926-5.077-1.816 3.724-5.784 6.138-10.16 5.766-3.832-.326-6.995-2.706-8.502-5.964-.445 5.159 3.039 9.943 8.235 10.998 4.303.874 8.522-1.067 10.756-4.556 1.68 3.028 4.622 5.33 8.28 6.073 6.636 1.348 13.107-2.94 14.455-9.575.56-2.763.142-5.497-1.014-7.845"/>
    </g>
</svg>
